<?xml version="1.0" standalone="no"?>
<!DOCTYPE svg PUBLIC "-//W3C//DTD SVG 20010904//EN"
 "http://www.w3.org/TR/2001/REC-SVG-20010904/DTD/svg10.dtd">
<svg version="1.0" xmlns="http://www.w3.org/2000/svg"
 width="297.000000pt" height="165.000000pt" viewBox="0 0 297.000000 165.000000"
 preserveAspectRatio="xMidYMid meet">
<metadata>
Created by potrace 1.15, written by Peter Selinger 2001-2017
</metadata>
<g transform="translate(0.000000,165.000000) scale(0.100000,-0.100000)"
fill="#000000" stroke="none">
<path d="M684 1477 c-121 -84 -164 -237 -104 -375 19 -41 21 -43 54 -37 29 6
35 4 41 -14 16 -52 173 -8 234 66 42 51 48 83 20 104 -34 25 -79 32 -98 15
-15 -13 -16 -5 -16 97 0 177 -32 212 -131 144z m91 -130 c0 -74 -4 -98 -19
-122 -30 -47 -68 -85 -100 -102 -27 -14 -31 -14 -42 2 -7 10 -16 38 -20 62
-13 87 15 171 78 229 83 78 103 64 103 -69z"/>
<path d="M303 1041 c-93 -53 -133 -81 -133 -94 0 -25 24 -17 132 49 140 85
165 96 188 84 24 -13 26 -43 5 -64 -8 -8 -42 -30 -76 -48 -37 -20 -62 -41 -65
-54 -12 -46 0 -66 56 -98 51 -28 63 -31 151 -31 85 0 102 3 150 28 30 15 78
48 108 74 42 37 57 44 70 36 28 -18 24 -42 -15 -78 -79 -75 -187 -133 -296
-161 -110 -29 -344 -4 -437 45 -19 10 -21 22 -23 134 l-3 122 -45 0 c-53 0
-65 -26 -15 -35 l30 -5 0 -125 0 -125 -30 -5 c-47 -8 -39 -34 12 -38 34 -3 44
1 53 18 7 14 18 20 28 17 158 -49 169 -51 287 -51 90 0 134 4 175 18 122 40
217 94 292 166 32 32 38 44 38 79 0 35 -4 43 -32 57 -30 15 -34 15 -65 -1 -18
-10 -33 -22 -33 -26 0 -4 -33 -29 -72 -56 -71 -47 -75 -48 -159 -51 -72 -3
-94 0 -135 18 -82 37 -80 54 10 104 72 41 84 52 92 92 4 21 0 37 -16 57 -36
45 -75 36 -227 -52z"/>
</g>
</svg>
